<svg width="210" height="24" viewBox="0 0 210 24" fill="none" xmlns="http://www.w3.org/2000/svg">
<g clip-path="url(#clip0_633_411)">
<path d="M27.2799 18.92L22.8499 23.67C22.7553 23.7749 22.6396 23.8585 22.5103 23.9154C22.381 23.9723 22.2412 24.0011 22.0999 24H1.09994C0.999569 23.9991 0.901594 23.9692 0.817845 23.9139C0.734097 23.8586 0.668153 23.7802 0.627975 23.6882C0.587797 23.5962 0.575102 23.4946 0.591421 23.3955C0.60774 23.2965 0.652377 23.2043 0.719943 23.13L5.14994 18.38C5.34791 18.1785 5.61751 18.0635 5.89994 18.06H26.8999C27.0003 18.0582 27.099 18.0861 27.1836 18.1401C27.2682 18.1942 27.335 18.272 27.3756 18.3638C27.4161 18.4557 27.4287 18.5574 27.4117 18.6564C27.3947 18.7553 27.3489 18.847 27.2799 18.92ZM22.8499 9.36003C22.7581 9.24971 22.6436 9.16045 22.5142 9.09833C22.3847 9.03621 22.2435 9.00269 22.0999 9.00003H1.09994C0.999565 8.99823 0.900889 9.0261 0.816281 9.08014C0.731673 9.13418 0.664896 9.21199 0.624321 9.30382C0.583745 9.39565 0.571174 9.49742 0.588185 9.59636C0.605195 9.6953 0.651029 9.78702 0.719943 9.86003L5.14994 14.61C5.23889 14.7259 5.35214 14.8208 5.48171 14.8882C5.61128 14.9556 5.75404 14.9937 5.89994 15H26.8999C27.0003 15.0018 27.099 14.974 27.1836 14.9199C27.2682 14.8659 27.335 14.7881 27.3756 14.6962C27.4161 14.6044 27.4287 14.5026 27.4117 14.4037C27.3947 14.3048 27.3489 14.213 27.2799 14.14L22.8499 9.36003ZM1.09994 5.94003H22.0999C22.3824 5.93654 22.652 5.82151 22.8499 5.62003L27.2799 0.870029C27.3475 0.795795 27.3921 0.703593 27.4085 0.60455C27.4248 0.505507 27.4121 0.403857 27.3719 0.311871C27.3317 0.219884 27.2658 0.141492 27.182 0.086157C27.0983 0.030822 27.0003 0.000909125 26.8999 2.89806e-05H5.89994C5.75872 -0.00104618 5.61886 0.0278057 5.48959 0.084685C5.36032 0.141564 5.24456 0.225181 5.14994 0.330029L0.719943 5.08003C0.651029 5.15304 0.605195 5.24476 0.588185 5.3437C0.571174 5.44264 0.583745 5.5444 0.624321 5.63623C0.664896 5.72806 0.731673 5.80587 0.816281 5.85992C0.900889 5.91396 0.999565 5.94183 1.09994 5.94003Z" fill="url(#paint0_linear_633_411)"/>
</g>
<path fill-rule="evenodd" clip-rule="evenodd" d="M139.895 16.794L134.273 3H129.045V21.41H132.382V6.59061L138.472 21.41H141.25L147.315 6.59061V21.41H150.677V3H145.52L139.895 16.794ZM159.871 7.66635C155.858 7.66635 152.687 10.4618 152.687 14.6677C152.687 18.8735 155.851 21.6906 159.871 21.6906C163.89 21.6906 167.023 18.8843 167.023 14.6677C167.023 10.4511 163.855 7.66635 159.871 7.66635ZM159.871 18.6936C157.632 18.6936 155.858 17.2293 155.858 14.6677C155.858 12.106 157.647 10.6669 159.871 10.6669C162.095 10.6669 163.862 12.1276 163.862 14.6677C163.862 17.2077 162.059 18.6936 159.871 18.6936ZM172.083 9.56599C172.923 8.54062 174.533 7.66635 176.678 7.66635C180.887 7.66635 183.351 10.8216 183.351 14.6677C183.351 18.5137 180.88 21.6906 176.678 21.6906C174.533 21.6906 172.931 20.8199 172.079 19.7945V21.4028H168.811V3H172.083V9.56599ZM171.944 14.7684C171.944 17.0494 173.764 18.7692 176.095 18.7692H176.103C178.32 18.7692 180.226 17.2833 180.226 14.6677C180.226 12.0521 178.313 10.5914 176.095 10.5914C173.764 10.5914 171.944 12.2823 171.944 14.5885V14.7684ZM188.444 9.00473H185.179V21.41H188.444V9.00473ZM190.94 3H194.205V21.4064H190.94V3ZM203.213 7.66635C198.964 7.66635 195.978 10.6921 195.978 14.6677C195.978 18.8447 199.011 21.6906 203.234 21.6906C206.478 21.6906 208.974 19.8449 209.793 17.6143L207.014 16.3083C206.456 17.7942 205.054 18.7692 203.234 18.7692C201.135 18.7692 199.526 17.6143 199.129 15.6679H210V14.5382C210 10.6921 207.457 7.66635 203.213 7.66635ZM199.247 13.2322C199.758 11.462 201.299 10.541 203.095 10.541C205.219 10.541 206.596 11.9801 206.782 13.2322H199.247ZM41.6141 8.28158C41.6141 10.6094 43.7132 10.9691 48.0296 11.4368C53.3722 12.0269 56.0793 12.768 56.0793 16.3838C56.0793 19.8197 52.7678 22 48.262 22C44.1316 22 40.4698 20.1795 39 17.0242L40.2695 15.9233C41.7393 19.0246 45.0793 20.435 48.2978 20.435C51.8738 20.435 54.47 18.9239 54.47 16.5385C54.47 14.0525 52.6498 13.5919 47.5396 13.0271C43.0839 12.563 40.0514 11.8974 40.0514 8.38591C40.0514 5.30979 43.0374 3.07915 47.2822 3.07915C51.3195 3.07915 54.3055 4.85287 55.5786 7.31017L54.3413 8.31036C53.222 6.15527 50.7116 4.6442 47.2249 4.6442C43.7383 4.6442 41.6141 6.23083 41.6141 8.28158ZM64.5009 8.09089C60.5672 8.09089 57.735 10.9871 57.735 15.0382C57.735 19.0894 60.5958 21.9856 64.5009 21.9856C68.4059 21.9856 71.2418 19.1074 71.2418 15.0382C71.2418 10.9691 68.3952 8.09089 64.5009 8.09089ZM64.5009 20.4961C61.4898 20.4961 59.2512 18.3194 59.2512 15.0382C59.2512 11.7571 61.4898 9.57678 64.5009 9.57678C67.5119 9.57678 69.7255 11.7571 69.7255 15.0382C69.7255 18.3194 67.4869 20.5105 64.5009 20.5105V20.4961ZM73.6449 3.33459H75.1861V21.741H73.6449V3.33459ZM89.3688 19.2441V12.8472C89.3688 9.82144 87.2947 8.10528 84.0047 8.10528C81.2047 8.10528 78.7765 9.59118 78.0077 11.7966L79.338 12.4622C79.8744 10.7461 81.7411 9.58398 83.9582 9.58398C86.4078 9.58398 87.8919 10.8396 87.8919 12.822V13.3833L82.4563 14.0273C79.5954 14.3583 77.507 15.5635 77.507 18.1036C77.507 20.6436 79.6169 22 82.2703 22C84.5805 22 86.8441 21.0754 87.9634 19.2801L87.9885 19.6902C88.1279 21.3596 89.4189 22.1547 91.4644 21.7446V20.3234C90.2092 20.64 89.3688 20.3846 89.3688 19.2441ZM87.8776 16.2435C87.8776 19.2189 85.0168 20.6041 82.3705 20.6041C80.3643 20.6041 79.009 19.7046 79.009 18.118C79.009 16.2435 80.6432 15.6571 82.6279 15.398L87.8776 14.7576V16.2435ZM96.7491 8.92089C97.6324 8.3782 98.6472 8.09101 99.6822 8.09089C103.112 8.09089 104.907 10.6417 104.918 14.2072V21.7625H103.355V14.4122C103.355 11.7427 102.117 9.69191 99.3675 9.69191C96.8463 9.69191 94.6757 11.6923 94.6757 14.8224V21.7625H93.1344V8.36072H94.6757V11.167C95.1484 10.2408 95.8659 9.46358 96.7491 8.92089ZM118.975 19.2441V12.8472C118.975 9.82144 116.901 8.10528 113.611 8.10528C110.811 8.10528 108.383 9.59118 107.614 11.7966L108.944 12.4622C109.481 10.7461 111.347 9.58398 113.564 9.58398C116.014 9.58398 117.498 10.8396 117.498 12.822V13.3833L112.045 14.0273C109.184 14.3583 107.099 15.5635 107.099 18.1036C107.099 20.6436 109.223 22 111.859 22C114.169 22 116.432 21.0754 117.552 19.2801L117.577 19.6902C117.716 21.3596 119.007 22.1547 121.053 21.7446V20.3234C119.819 20.64 118.975 20.3846 118.975 19.2441ZM117.484 16.2435C117.484 19.2189 114.623 20.6041 111.977 20.6041C109.97 20.6041 108.615 19.7046 108.615 18.118C108.615 16.2435 110.249 15.6571 112.234 15.398L117.484 14.7576V16.2435ZM188.873 5.07952C188.873 6.22603 187.949 7.15546 186.809 7.15546C185.67 7.15546 184.746 6.22603 184.746 5.07952C184.746 3.93302 185.67 3.00359 186.809 3.00359C187.949 3.00359 188.873 3.93302 188.873 5.07952Z" fill="white"/>
<defs>
<linearGradient id="paint0_linear_633_411" x1="2.84994" y1="24.57" x2="24.8699" y2="-0.24997" gradientUnits="userSpaceOnUse">
<stop offset="0.08" stop-color="#9945FF"/>
<stop offset="0.3" stop-color="#8752F3"/>
<stop offset="0.5" stop-color="#5497D5"/>
<stop offset="0.6" stop-color="#43B4CA"/>
<stop offset="0.72" stop-color="#28E0B9"/>
<stop offset="0.97" stop-color="#19FB9B"/>
</linearGradient>
<clipPath id="clip0_633_411">
<rect width="162" height="24" fill="white"/>
</clipPath>
</defs>
</svg>
